PathFileType	4	(X/Y/Z)	/Users/itak/Documents/Research/Walk-IL/dataset/trc/00181_00008.trc
DataRate	CameraRate	NumFrames	NumMarkers	Units	OrigDataRate	OrigDataStartFrame	OrigNumFrames
100.000000	100.000000	4	53	mm	100.000000	595	794
Frame#	Time	RPSI			LPSI			L3			STRN			T10			C7			CLAV			RBAK			LBAK			LSHO			LUPA			LAEL			LAOL			LWTS			LWPS			LFRA			LIFD			LHPS			LHTS			RSHO			RUPA			RAEL			RAOL			RWTS			RWPS			RFRA			RIFD			RHTS			RHPS			RBHD			LFHD			RFHD			LBHD			LHIP			RHIP			RASI			LASI			LKNE			LTHI			LANK			LTIP			LTOE			LMT1			LMT5			LHEE			RKNE			RTHI			RANK			RTIP			RTOE			RMT1			RMT5			RHEE			
		X1	Y1	Z1	X2	Y2	Z2	X3	Y3	Z3	X4	Y4	Z4	X5	Y5	Z5	X6	Y6	Z6	X7	Y7	Z7	X8	Y8	Z8	X9	Y9	Z9	X10	Y10	Z10	X11	Y11	Z11	X12	Y12	Z12	X13	Y13	Z13	X14	Y14	Z14	X15	Y15	Z15	X16	Y16	Z16	X17	Y17	Z17	X18	Y18	Z18	X19	Y19	Z19	X20	Y20	Z20	X21	Y21	Z21	X22	Y22	Z22	X23	Y23	Z23	X24	Y24	Z24	X25	Y25	Z25	X26	Y26	Z26	X27	Y27	Z27	X28	Y28	Z28	X29	Y29	Z29	X30	Y30	Z30	X31	Y31	Z31	X32	Y32	Z32	X33	Y33	Z33	X34	Y34	Z34	X35	Y35	Z35	X36	Y36	Z36	X37	Y37	Z37	X38	Y38	Z38	X39	Y39	Z39	X40	Y40	Z40	X41	Y41	Z41	X42	Y42	Z42	X43	Y43	Z43	X44	Y44	Z44	X45	Y45	Z45	X46	Y46	Z46	X47	Y47	Z47	X48	Y48	Z48	X49	Y49	Z49	X50	Y50	Z50	X51	Y51	Z51	X52	Y52	Z52	X53	Y53	Z53	

596	5.95	-952.9030151367188	1011.508972167969	414.9586486816406	-847.3742065429688	1012.639404296875	351.4672546386719	-899.5984497070312	1047.771240234375	380.9927673339844	-771.0341796875	1258.96826171875	611.4488525390625	-897.2061767578125	1202.7900390625	335.2262878417969	-839.6287841796875	1471.682983398438	384.5136108398438	-770.9524536132812	1371.590942382812	578.3353271484375	-976.4398193359375	1302.625854492188	370.7225952148438	-751.8600463867188	1440.236938476562	339.642822265625	-651.6502685546875	1424.222412109375	381.5315246582031	-602.1895141601562	1286.747192382812	329.0144348144531	-582.5303344726562	1069.43359375	349.3834228515625	-669.1991577148438	1053.23486328125	331.0260620117188	-571.4263916015625	846.0198974609375	478.26123046875	-567.0336303710938	818.7073364257812	388.8961486816406	-566.031494140625	959.3510131835938	363.9505615234375	-579.6383666992188	662.6392822265625	510.3427124023438	-560.5184936523438	751.6549072265625	414.0372314453125	-546.5982666015625	768.1305541992188	483.9061584472656	-983.5374145507812	1462.692993164062	513.0549926757812	-1058.6015625	1403.944213867188	517.8674926757812	-1152.420043945312	1131.165893554688	505.720947265625	-1058.408813476562	1107.234619140625	479.2282409667969	-1141.351806640625	895.5298461914062	628.9029541015625	-1203.95751953125	890.5440673828125	564.6770629882812	-1175.694213867188	1061.57958984375	532.65771484375	-1143.818115234375	703.6814575195312	627.37646484375	-1159.29541015625	800.3357543945312	649.4957275390625	-1207.211791992188	805.7301635742188	586.6145629882812	-880.0098266601562	1627.577514648438	439.9388732910156	-696.83984375	1693.22021484375	535.5792846679688	-816.0053100585938	1706.653686523438	583.5680541992188	-756.6914672851562	1619.875244140625	381.4658508300781	-697.89013671875	948.8378295898438	382.2252197265625	-987.6923828125	976.596923828125	614.2583618164062	-897.039306640625	1003.76171875	651.7445068359375	-676.0289916992188	983.3651733398438	520.6255493164062	-800.3754272460938	469.3801879882812	342.4684753417969	-745.7086791992188	606.8204956054688	361.7502136230469	-963.7372436523438	91.17840576171875	92.43430328369141	-871.8134155273438	282.1768798828125	218.0821685791016	-961.1837158203125	37.70621871948242	292.1466674804688	-1011.654418945312	40.99473571777344	256.6209716796875	-910.8497924804688	40.93880462646484	180.7992706298828	-1035.123413085938	129.5375671386719	62.57902908325195	-854.427734375	524.7820434570312	774.5188598632812	-928.6923217773438	774.1748046875	720.7015991210938	-837.7153930664062	30.66751098632812	867.0562133789062	-815.0257568359375	412.7420959472656	809.4085083007812	-654.884765625	93.14547729492188	971.9055786132812	-662.9891357421875	79.77800750732422	905.3033447265625	-766.4967651367188	40.04435348510742	961.6813354492188	-834.5064697265625	29.91867065429688	781.3154296875	
597	5.96	-950.666748046875	1013.00634765625	427.5475463867188	-844.7554931640625	1013.610046386719	363.80615234375	-897.2514038085938	1048.8408203125	393.2483825683594	-767.0631103515625	1260.271484375	622.4531860351562	-895.6494140625	1203.11865234375	347.4186096191406	-838.5933227539062	1472.415893554688	395.6882019042969	-767.6773071289062	1372.72509765625	588.896484375	-975.12646484375	1302.973388671875	383.5372009277344	-751.3214111328125	1441.025024414062	349.9017333984375	-650.36865234375	1425.050415039062	390.4802551269531	-602.3884887695312	1287.254150390625	336.6759643554688	-583.8301391601562	1070.2998046875	353.6025085449219	-671.1155395507812	1054.812133789062	337.7235107421875	-569.6913452148438	841.9209594726562	472.8673400878906	-568.8034057617188	818.8170166015625	382.2957763671875	-567.4683837890625	960.2117919921875	363.7037963867188	-577.743896484375	656.8280029296875	495.592041015625	-561.5439453125	750.80908203125	403.7435913085938	-545.0900268554688	763.6188354492188	473.740478515625	-981.3222045898438	1463.27880859375	525.8699951171875	-1056.229248046875	1404.23828125	531.3690185546875	-1149.00048828125	1131.119995117188	520.5426635742188	-1055.692016601562	1107.44677734375	492.5063171386719	-1135.498168945312	894.8317260742188	642.6392822265625	-1199.091796875	890.097412109375	579.4089965820312	-1171.549438476562	1061.274780273438	547.629150390625	-1137.568969726562	703.00146484375	640.2066650390625	-1152.869140625	799.5635375976562	663.1557006835938	-1201.798583984375	805.1980590820312	600.97900390625	-878.7053833007812	1628.317138671875	450.5325927734375	-694.952880859375	1694.684448242188	544.587158203125	-813.803466796875	1708.014526367188	593.4082641601562	-755.7959594726562	1620.668579101562	391.1647338867188	-695.1434936523438	949.174072265625	392.9844970703125	-982.7888793945312	978.9007568359375	627.7278442382812	-891.564208984375	1005.062561035156	664.3212890625	-672.3206787109375	984.0145874023438	531.1785278320312	-795.0078735351562	469.1511535644531	352.8650207519531	-741.46923828125	607.088623046875	372.1780395507812	-963.031005859375	96.59421539306641	95.93659210205078	-868.550537109375	284.7189025878906	225.1368408203125	-961.2959594726562	37.76923370361328	291.9917907714844	-1011.414855957031	41.41543197631836	258.0929565429688	-910.7504272460938	41.74409484863281	181.9741821289062	-1034.180786132812	137.2528839111328	68.56643676757812	-846.5714111328125	526.1466064453125	785.5609130859375	-921.4719848632812	776.0545043945312	733.1171264648438	-836.453857421875	30.43200874328613	868.9764404296875	-807.6458129882812	412.7043762207031	818.4365234375	-649.907958984375	85.52376556396484	972.529052734375	-659.5808715820312	73.96741485595703	905.9791259765625	-763.8563232421875	36.25777435302734	963.4080200195312	-834.5632934570312	31.7097339630127	783.2706298828125	
598	5.97	-948.3635864257812	1014.833740234375	439.6688842773438	-841.9513549804688	1014.804260253906	375.8609619140625	-894.8428344726562	1050.22900390625	405.0838317871094	-763.1212768554688	1261.837158203125	633.3359375	-893.8464965820312	1203.84033203125	359.4157104492188	-837.3619384765625	1473.469970703125	406.8479614257812	-764.355224609375	1374.143798828125	599.39404296875	-973.6359252929688	1303.697509765625	396.1886901855469	-750.5545654296875	1442.169921875	360.1936950683594	-648.8827514648438	1426.236328125	399.5234985351562	-602.3942260742188	1288.139282226562	344.4607543945312	-585.0828247070312	1071.644653320312	357.8704833984375	-672.8836059570312	1056.777709960938	344.5480651855469	-568.177001953125	838.7335205078125	467.2787780761719	-570.9036254882812	819.890625	375.8399658203125	-568.9935302734375	961.7469482421875	363.5362854003906	-576.332763671875	652.4046020507812	480.6166687011719	-563.05126953125	751.1210327148438	393.5580139160156	-543.95458984375	760.2508544921875	463.3615417480469	-978.980224609375	1464.21728515625	538.5659790039062	-1053.701171875	1404.904663085938	544.7238159179688	-1145.302368164062	1131.328002929688	535.413330078125	-1052.72900390625	1108.004638671875	505.8637084960938	-1129.432006835938	894.5221557617188	656.5465698242188	-1193.99658203125	890.0245361328125	594.3248291015625	-1167.147583007812	1061.306274414062	562.699951171875	-1131.257690429688	702.7055053710938	653.25439453125	-1146.246826171875	799.2228393554688	677.0742797851562	-1196.228759765625	805.0779418945312	615.5682983398438	-877.3347778320312	1629.316162109375	461.1784057617188	-693.0347290039062	1696.4423828125	553.638916015625	-811.5634765625	1709.6337890625	603.2982177734375	-754.84423828125	1621.758911132812	400.9073181152344	-692.1970825195312	949.678955078125	403.7332763671875	-977.9718627929688	981.6612548828125	640.7444458007812	-886.2968139648438	1006.841735839844	676.6642456054688	-668.6699829101562	984.924072265625	541.6595458984375	-789.043212890625	468.7698364257812	363.8891906738281	-736.9039916992188	607.2930908203125	383.0538940429688	-962.3571166992188	102.5577850341797	100.0497131347656	-864.9845581054688	287.3089904785156	232.836181640625	-961.4395751953125	37.77964401245117	291.9627380371094	-1011.218200683594	41.95460510253906	259.9134826660156	-910.8202514648438	42.81459045410156	183.3338317871094	-1033.244140625	145.4718322753906	75.52703094482422	-839.0633544921875	527.7278442382812	796.5089111328125	-914.659912109375	778.4747924804688	745.283447265625	-835.4678955078125	30.27915382385254	870.6006469726562	-800.796875	412.8419494628906	827.32861328125	-646.198486328125	79.06202697753906	973.1668090820312	-657.1320190429688	69.16579437255859	906.6908569335938	-762.3470458984375	33.47328186035156	964.951171875	-834.5726928710938	33.28545761108398	784.9224243164062	
599	5.98	-945.9683227539062	1016.90087890625	451.3990173339844	-839.0537719726562	1016.193542480469	387.5971069335938	-892.407958984375	1051.877685546875	416.534912109375	-759.2097778320312	1263.66943359375	644.0472412109375	-891.870361328125	1204.935668945312	371.186767578125	-835.9592895507812	1474.82177734375	417.9273681640625	-760.9942626953125	1375.852416992188	609.778076171875	-971.9774780273438	1304.765869140625	408.6489868164062	-749.58154296875	1443.6591796875	370.4522399902344	-647.2265014648438	1427.80126953125	408.6100463867188	-602.1647338867188	1289.479858398438	352.3185424804688	-586.2542114257812	1073.515625	362.1737976074219	-674.4757690429688	1059.184936523438	351.4434814453125	-566.8903198242188	836.5353393554688	461.6056823730469	-573.2645874023438	821.9530029296875	369.6378479003906	-570.5630493164062	963.9944458007812	363.4851379394531	-575.4641723632812	649.4627075195312	465.6677551269531	-565.0001831054688	752.6069946289062	383.6445922851562	-543.2196655273438	758.0897827148438	452.9474792480469	-976.5174560546875	1465.509521484375	551.06591796875	-1051.012329101562	1405.956420898438	557.8795776367188	-1141.3388671875	1131.816772460938	550.273681640625	-1049.4619140625	1108.937133789062	519.3128051757812	-1123.156616210938	894.6615600585938	670.63671875	-1188.660278320312	890.353759765625	609.4191284179688	-1162.505859375	1061.707885742188	577.8243408203125	-1124.858276367188	702.8366088867188	666.5640869140625	-1139.44287109375	799.33740234375	691.2343139648438	-1190.488525390625	805.3953857421875	630.3943481445312	-875.88623046875	1630.569702148438	471.8435974121094	-691.08251953125	1698.46337890625	562.7296142578125	-809.27685546875	1711.4775390625	613.2323608398438	-753.8242797851562	1623.148193359375	410.672607421875	-689.1039428710938	950.3694458007812	414.4100646972656	-973.2960205078125	984.7066040039062	653.313232421875	-881.2655029296875	1009.047912597656	688.7117919921875	-665.1262817382812	986.1069946289062	551.9893798828125	-782.4577026367188	468.2263488769531	375.5401000976562	-732.0132446289062	607.4171752929688	394.3639831542969	-961.7390747070312	109.1203842163086	104.8639068603516	-861.1116943359375	289.9463500976562	241.2091217041016	-961.5615234375	37.68503189086914	292.1886291503906	-1011.004577636719	42.7236213684082	262.1665649414062	-911.0704956054688	44.28203201293945	184.9201049804688	-1032.28955078125	154.2207946777344	83.49446868896484	-832.0227661132812	529.3475341796875	807.1687622070312	-908.2919311523438	781.2431030273438	757.1749267578125	-834.73193359375	30.23154258728027	871.873046875	-794.5242919921875	413.0387268066406	835.9312133789062	-643.5202026367188	73.73655700683594	973.7369995117188	-655.4423217773438	65.32970428466797	907.3458251953125	-761.7006225585938	31.61056709289551	966.2341918945312	-834.4909057617188	34.58815002441406	786.2413330078125	
